<svg xmlns="http://www.w3.org/2000/svg" width="256" height="256" viewBox="0 0 256 256" stroke="#000" fill="none" stroke-width="6" stroke-linecap="round" stroke-linejoin="round">
<path d="M 138.0,128.0 L 138.5,128.9 L 139.0,129.9 L 139.3,131.0 L 139.5,132.1 L 139.6,133.4 L 139.6,134.6 L 139.5,135.9 L 139.2,137.2 L 138.7,138.6 L 138.1,139.9 L 137.4,141.2 L 136.5,142.4 L 135.5,143.6 L 134.3,144.7 L 133.0,145.7 L 131.6,146.7 L 130.0,147.5 L 128.3,148.1 L 126.5,148.6 L 124.7,149.0 L 122.7,149.2 L 120.8,149.2 L 118.7,149.0 L 116.7,148.6 L 114.6,148.0 L 112.6,147.2 L 110.6,146.2 L 108.7,145.0 L 106.8,143.6 L 105.1,142.0 L 103.5,140.3 L 102.0,138.3 L 100.6,136.2 L 99.5,133.9 L 98.5,131.5 L 97.8,129.0 L 97.2,126.3 L 96.9,123.6 L 96.9,120.8 L 97.1,118.0 L 97.6,115.1 L 98.3,112.3 L 99.3,109.5 L 100.5,106.7 L 102.1,104.0 L 103.9,101.5 L 105.9,99.0 L 108.2,96.8 L 110.7,94.7 L 113.4,92.8 L 116.3,91.1 L 119.4,89.7 L 122.7,88.5 L 126.1,87.7 L 129.6,87.1 L 133.2,86.8 L 136.9,86.9 L 140.5,87.3 L 144.2,88.0 L 147.9,89.0 L 151.4,90.4 L 154.9,92.1 L 158.3,94.2 L 161.5,96.5 L 164.6,99.2 L 167.4,102.1 L 170.0,105.4 L 172.3,108.8 L 174.3,112.6 L 176.0,116.5 L 177.4,120.6 L 178.4,124.8 L 179.0,129.2 L 179.3,133.7 L 179.2,138.2 L 178.7,142.7 L 177.7,147.2 L 176.4,151.7 L 174.6,156.1 L 172.5,160.3 L 170.0,164.4 L 167.1,168.3 L 163.8,172.0 L 160.2,175.4 L 156.2,178.4 L 152.0,181.2 L 147.5,183.6 L 142.8,185.6 L 137.9,187.2 L 132.8,188.4 L 127.5,189.2 L 122.2,189.5 L 116.8,189.3 L 111.4,188.6 L 106.0,187.5 L 100.8,185.9 L 95.6,183.8 L 90.6,181.3 L 85.7,178.3 L 81.2,174.8 L 76.9,171.0 L 72.9,166.7 L 69.3,162.1 L 66.0,157.2 L 63.2,151.9 L 60.8,146.4 L 59.0,140.6 L 57.6,134.7 L 56.7,128.6 L 56.3,122.4 L 56.5,116.1 L 57.3,109.8 L 58.6,103.6 L 60.4,97.5 L 62.8,91.5 L 65.8,85.7 L 69.2,80.1 L 73.2,74.8 L 77.6,69.9 L 82.4,65.3 L 87.7,61.1 L 93.4,57.4 L 99.4,54.1 L 105.8,51.4 L 112.3,49.2 L 119.1,47.6 L 126.1,46.6 L 133.1,46.2 L 140.3,46.4 L 147.4,47.2 L 154.5,48.6 L 161.5,50.7 L 168.3,53.4 L 174.9,56.6 L 181.2,60.5 L 187.2,64.9 L 192.9,69.9 L 198.1,75.4 L 202.8,81.3 L 207.1,87.7 L 210.8,94.5 L 213.9,101.6 L 216.4,109.0 L 218.3,116.6 L 219.5,124.4 L 220.0,132.3 L 219.9,140.3 L 219.0,148.3 L 217.4,156.3 L 215.2,164.1 L 212.2,171.8 L 208.6,179.2 L 204.4,186.3 L 199.5,193.0 L 194.0,199.4 L 187.9,205.2 L 181.3,210.6 L 174.3,215.4 L 166.8,219.6"/>
<line x1="78.52804650802295" y1="125.25248389664841" x2="110.52804650802295" y2="157.2524838966484"/>
<line x1="149.90636862591342" y1="76.40355049170822" x2="181.90636862591342" y2="108.40355049170822"/>
<line x1="83.04700817357502" y1="173.5282395676893" x2="115.04700817357502" y2="205.5282395676893"/>
<line x1="117.2744036404624" y1="28.1657548120252" x2="149.2744036404624" y2="60.1657548120252"/>
</svg>