<svg xmlns="http://www.w3.org/2000/svg" width="256" height="256" viewBox="0 0 256 256" stroke="#000" fill="none" stroke-width="6" stroke-linecap="round" stroke-linejoin="round">
<path d="M 138.0,128.0 L 138.4,128.9 L 138.7,129.8 L 138.9,130.9 L 139.0,131.9 L 139.0,133.0 L 138.8,134.1 L 138.6,135.3 L 138.3,136.4 L 137.8,137.5 L 137.2,138.6 L 136.5,139.7 L 135.7,140.8 L 134.8,141.7 L 133.7,142.7 L 132.5,143.5 L 131.3,144.2 L 129.9,144.8 L 128.5,145.4 L 127.0,145.7 L 125.4,146.0 L 123.8,146.1 L 122.1,146.1 L 120.4,145.9 L 118.8,145.5 L 117.1,145.0 L 115.4,144.3 L 113.8,143.5 L 112.2,142.5 L 110.7,141.4 L 109.3,140.0 L 107.9,138.6 L 106.7,137.0 L 105.7,135.3 L 104.7,133.4 L 103.9,131.5 L 103.3,129.4 L 102.9,127.3 L 102.6,125.1 L 102.6,122.8 L 102.7,120.6 L 103.1,118.3 L 103.6,116.0 L 104.4,113.8 L 105.3,111.5 L 106.5,109.4 L 107.9,107.3 L 109.5,105.4 L 111.3,103.5 L 113.2,101.8 L 115.3,100.3 L 117.6,98.9 L 120.0,97.8 L 122.6,96.8 L 125.3,96.0 L 128.0,95.5 L 130.8,95.2 L 133.7,95.2 L 136.6,95.4 L 139.5,95.8 L 142.4,96.6 L 145.2,97.6 L 148.0,98.8 L 150.6,100.3 L 153.2,102.1 L 155.7,104.0 L 157.9,106.3 L 160.0,108.7 L 161.9,111.3 L 163.6,114.1 L 165.1,117.1 L 166.3,120.2 L 167.2,123.5 L 167.8,126.9 L 168.2,130.3 L 168.3,133.8 L 168.0,137.3 L 167.5,140.8 L 166.6,144.3 L 165.4,147.7 L 163.9,151.1 L 162.2,154.3 L 160.1,157.4 L 157.7,160.4 L 155.1,163.1 L 152.2,165.7 L 149.1,168.0 L 145.7,170.0 L 142.2,171.7 L 138.5,173.2 L 134.7,174.3 L 130.7,175.2 L 126.6,175.6 L 122.5,175.7 L 118.4,175.5 L 114.2,174.9 L 110.1,173.9 L 106.1,172.6 L 102.1,170.9 L 98.3,168.9 L 94.7,166.5 L 91.2,163.8 L 88.0,160.7 L 85.0,157.4 L 82.2,153.8 L 79.8,150.0 L 77.7,145.9 L 76.0,141.7 L 74.6,137.2 L 73.6,132.7 L 73.0,128.0 L 72.8,123.3 L 73.0,118.5 L 73.6,113.7 L 74.7,109.0 L 76.1,104.3 L 78.0,99.7 L 80.2,95.3 L 82.9,91.1 L 85.9,87.1 L 89.3,83.3 L 93.0,79.9 L 97.1,76.7 L 101.4,73.9 L 106.0,71.4 L 110.8,69.3 L 115.8,67.7 L 120.9,66.4 L 126.2,65.7 L 131.6,65.3 L 137.0,65.5 L 142.4,66.1 L 147.8,67.1 L 153.1,68.7 L 158.2,70.7 L 163.3,73.1 L 168.1,76.0 L 172.7,79.3 L 177.0,83.1 L 180.9,87.2 L 184.6,91.6 L 187.9,96.4 L 190.7,101.5 L 193.1,106.8 L 195.1,112.4 L 196.6,118.1 L 197.6,124.0 L 198.1,130.0 L 198.1,136.0 L 197.5,142.1 L 196.5,148.1 L 194.9,154.0 L 192.8,159.8 L 190.2,165.5 L 187.1,170.9 L 183.5,176.1 L 179.4,180.9 L 175.0,185.5 L 170.1,189.6 L 164.9,193.3 L 159.3,196.6 L 153.5,199.5 L 147.4,201.8 L 141.1,203.6 L 134.6,204.8 L 128.0,205.5 L 121.3,205.6 L 114.6,205.2 L 108.0,204.1 L 101.4,202.5 L 95.0,200.4 L 88.7,197.6 L 82.6,194.3 L 76.9,190.5 L 71.4,186.2 L 66.3,181.4 L 61.7,176.2 L 57.4,170.6 L 53.7,164.5 L 50.4,158.2 L 47.8,151.6 L 45.6,144.7 L 44.1,137.6 L 43.2,130.4 L 42.9,123.1 L 43.2,115.8 L 44.1,108.5 L 45.7,101.3 L 47.9,94.2 L 50.8,87.3 L 54.2,80.6 L 58.2,74.2 L 62.8,68.1 L 67.9,62.5 L 73.4,57.2 L 79.5,52.5 L 85.9,48.2 L 92.7,44.6 L 99.9,41.5 L 107.3,39.0 L 114.9,37.1 L 122.7,35.9 L 130.6,35.4 L 138.6,35.6 L 146.6,36.4 L 154.4,37.9 L 162.2,40.2 L 169.8,43.0 L 177.1,46.6 L 184.1,50.7 L 190.8,55.5 L 197.1,60.9 L 202.9,66.8 L 208.2,73.2 L 212.9,80.0 L 217.1,87.3 L 220.6,94.9 L 223.5,102.9 L 225.7,111.1 L 227.2,119.5"/>
</svg>