<?xml version="1.0" standalone="no"?>
<!DOCTYPE svg PUBLIC "-//W3C//DTD SVG 20010904//EN"
 "http://www.w3.org/TR/2001/REC-SVG-20010904/DTD/svg10.dtd">
<svg version="1.0" xmlns="http://www.w3.org/2000/svg"
 width="614.000000pt" height="604.000000pt" viewBox="0 0 614.000000 604.000000"
 preserveAspectRatio="xMidYMid meet">

<g transform="translate(0.000000,604.000000) scale(0.100000,-0.100000)"
fill="#000000" stroke="none">
<path d="M2632 4878 l-332 -199 0 -731 0 -731 331 -579 c182 -319 335 -576
339 -571 4 4 154 266 333 580 l327 573 0 728 0 729 -333 200 -334 200 -331
-199z m308 -58 c0 -97 -3 -132 -13 -136 -7 -2 -109 -3 -227 -2 l-214 3 220
132 c120 73 222 132 227 133 4 0 7 -59 7 -130z m273 4 c117 -70 216 -131 221
-135 6 -5 -90 -9 -217 -9 l-227 0 0 135 c0 74 3 135 6 135 3 0 101 -57 217
-126z m-278 -484 l0 -285 -100 -3 -100 -3 -163 275 c-89 151 -165 282 -168
290 -6 15 21 16 262 14 l269 -3 0 -285z m595 286 c0 -2 -75 -132 -168 -287
l-167 -284 -103 -3 -102 -3 0 284 c0 156 3 287 7 290 7 7 533 10 533 3z
m-1010 -321 c62 -104 121 -205 132 -222 l20 -33 -141 0 -141 0 0 232 c0 144 4
228 9 223 5 -6 60 -95 121 -200z m1012 -247 c-5 -5 -68 -7 -140 -6 l-131 3
120 205 c66 113 128 216 137 230 16 24 17 15 20 -199 1 -124 -1 -228 -6 -233z
m-750 -196 c43 -73 78 -135 78 -137 0 -4 -407 259 -418 270 -3 3 54 4 128 3
l133 -3 79 -133z m154 125 c2 -7 3 -71 2 -143 l-3 -129 -82 137 c-46 76 -83
140 -83 143 0 3 36 5 80 5 57 0 82 -4 86 -13z m221 6 c-29 -54 -160 -273 -163
-273 -2 0 -4 63 -4 140 l0 140 86 0 c47 0 83 -3 81 -7z m318 -2 c-6 -4 -86
-57 -180 -118 -93 -60 -183 -118 -200 -129 l-30 -19 21 35 c12 19 45 76 74
125 29 50 58 96 63 103 7 8 46 12 135 12 70 0 122 -4 117 -9z m65 -361 c0
-223 -3 -330 -10 -330 -19 0 -509 325 -502 332 12 12 497 327 505 327 4 1 7
-147 7 -329z m-890 161 c135 -87 244 -163 244 -167 -1 -7 -421 -287 -486 -325
-17 -9 -18 9 -18 321 0 181 3 330 8 330 4 0 117 -71 252 -159z m601 -383 c153
-99 277 -184 275 -187 -2 -3 -122 -213 -266 -466 -144 -253 -270 -473 -280
-489 l-18 -28 -275 483 c-152 266 -277 490 -279 497 -3 11 535 372 556 372 5
0 134 -82 287 -182z"/>
<path d="M2805 3280 c42 -16 46 -31 43 -176 -3 -138 -3 -138 -28 -145 -16 -5
-2 -7 40 -7 36 0 58 2 50 5 -33 12 -40 36 -40 145 0 59 3 108 8 107 4 0 57
-62 117 -137 l110 -137 2 150 c3 177 6 192 36 198 12 2 -7 4 -43 4 -36 0 -55
-2 -43 -4 30 -6 34 -28 31 -146 l-3 -98 -100 125 -100 125 -50 0 c-36 0 -44
-3 -30 -9z"/>
<path d="M2950 2930 c-19 -15 -41 -20 -90 -20 -58 0 -62 -2 -41 -13 17 -9 41
-52 85 -155 34 -79 66 -144 70 -145 4 -1 35 63 67 143 33 80 67 151 76 158 14
10 11 12 -23 12 -22 0 -52 9 -69 20 -37 25 -44 25 -75 0z m30 -50 l0 -60 -40
28 c-21 15 -39 30 -40 33 0 5 68 56 78 58 1 1 2 -26 2 -59z m83 15 c16 -11 15
-14 -15 -37 -59 -44 -58 -45 -58 23 l0 61 28 -17 c15 -10 35 -24 45 -30z m-85
-146 l2 -64 -35 79 c-19 44 -35 84 -35 89 0 5 15 -2 33 -15 29 -24 32 -30 35
-89z m79 89 c-3 -7 -18 -44 -33 -83 l-29 -70 -3 59 c-3 55 -1 61 25 82 31 26
48 30 40 12z"/>
<path d="M4120 1780 c0 -11 5 -20 10 -20 6 0 10 9 10 20 0 11 -4 20 -10 20 -5
0 -10 -9 -10 -20z"/>
<path d="M1965 1747 c-18 -9 -20 -53 -4 -63 6 -3 15 -1 19 6 6 9 12 9 30 0 32
-17 48 -6 47 32 -1 32 -3 33 -39 33 -21 0 -45 -3 -53 -8z m56 -17 c6 0 8 -4 5
-9 -7 -10 -56 -12 -56 -1 0 13 14 21 28 15 7 -3 18 -5 23 -5z"/>
<path d="M2918 1744 c-31 -16 -37 -51 -12 -61 20 -7 37 17 23 33 -7 9 -4 14
10 19 12 3 21 11 21 16 0 12 -10 11 -42 -7z"/>
<path d="M1479 1734 c-20 -24 1 -48 44 -52 28 -2 42 3 62 22 28 28 32 46 10
46 -8 0 -15 -4 -15 -9 0 -13 -29 -41 -42 -41 -6 0 -8 3 -5 6 9 10 -12 44 -27
44 -8 0 -19 -7 -27 -16z m36 -14 c3 -5 -1 -10 -9 -10 -9 0 -16 5 -16 10 0 6 4
10 9 10 6 0 13 -4 16 -10z"/>
<path d="M4120 1736 c0 -12 -6 -12 -29 -3 -35 13 -74 -1 -91 -33 -10 -19 -8
-20 65 -20 l75 0 0 35 c0 19 -4 35 -10 35 -5 0 -10 -6 -10 -14z m-25 -26 c4
-6 -8 -10 -30 -10 -22 0 -34 4 -30 10 3 6 17 10 30 10 13 0 27 -4 30 -10z"/>
<path d="M4640 1735 c-10 -12 -11 -21 -3 -33 22 -36 106 -21 122 20 12 33 -6
35 -30 4 -25 -32 -37 -33 -41 -4 -4 28 -30 35 -48 13z m30 -15 c0 -5 -4 -10
-10 -10 -5 0 -10 5 -10 10 0 6 5 10 10 10 6 0 10 -4 10 -10z"/>
<path d="M1258 1729 c-10 -5 -22 -19 -28 -29 -10 -19 -7 -20 60 -20 54 0 70 3
70 14 0 34 -66 57 -102 35z m67 -19 c4 -6 -11 -10 -37 -10 -31 0 -39 3 -28 10
20 13 57 13 65 0z"/>
<path d="M3270 1720 c-33 -33 -24 -40 50 -40 39 0 70 4 70 8 0 18 -48 52 -73
52 -15 0 -36 -9 -47 -20z m80 -10 c11 -7 3 -10 -28 -10 -26 0 -41 4 -37 10 8
13 45 13 65 0z"/>
<path d="M4347 1733 c-13 -12 -7 -41 10 -47 21 -8 48 17 40 38 -6 16 -38 22
-50 9z m33 -23 c0 -5 -4 -10 -10 -10 -5 0 -10 5 -10 10 0 6 5 10 10 10 6 0 10
-4 10 -10z"/>
<path d="M1027 1653 c-12 -11 -8 -40 8 -53 17 -14 21 -110 5 -110 -5 0 -10 -7
-10 -15 0 -11 13 -15 54 -15 30 0 66 4 80 10 25 9 26 12 26 100 0 73 -3 90
-15 90 -12 0 -15 -16 -15 -85 l0 -85 -40 0 -40 0 0 73 c0 71 -10 97 -35 97 -7
0 -15 -3 -18 -7z m33 -23 c0 -5 -7 -10 -16 -10 -8 0 -12 5 -9 10 3 6 10 10 16
10 5 0 9 -4 9 -10z"/>
<path d="M1247 1642 c-27 -29 -20 -41 26 -44 37 -3 42 -6 45 -30 2 -15 -3 -37
-12 -49 -19 -27 -10 -49 19 -49 27 0 35 17 35 70 0 48 -26 80 -67 83 -44 3
-29 12 20 12 57 0 53 19 -4 23 -34 2 -50 -2 -62 -16z m93 -142 c0 -5 -7 -10
-16 -10 -8 0 -12 5 -9 10 3 6 10 10 16 10 5 0 9 -4 9 -10z"/>
<path d="M1392 1648 c-16 -16 -15 -37 3 -44 19 -8 22 -110 3 -116 -6 -2 -8
-10 -4 -16 4 -7 31 -12 64 -12 70 0 102 19 102 59 0 16 7 31 15 35 8 3 15 13
15 22 0 13 -3 14 -15 4 -13 -11 -15 -6 -15 35 0 39 -3 46 -17 43 -13 -2 -19
-14 -21 -41 -3 -32 -6 -36 -18 -26 -11 9 -17 9 -28 -1 -19 -15 -9 -39 20 -51
14 -5 24 -17 24 -29 0 -17 -7 -20 -40 -20 l-39 0 -3 82 c-2 65 -6 83 -18 86
-9 1 -21 -3 -28 -10z m28 -18 c0 -5 -4 -10 -10 -10 -5 0 -10 5 -10 10 0 6 5
10 10 10 6 0 10 -4 10 -10z"/>
<path d="M1607 1654 c-12 -13 -7 -44 8 -50 11 -5 15 -23 15 -75 0 -94 19 -92
54 5 15 41 34 80 42 87 12 10 14 -1 14 -75 0 -71 3 -86 15 -86 13 0 15 15 13
98 -3 91 -4 97 -25 100 -17 3 -28 -8 -52 -49 l-30 -53 -3 50 c-2 40 -7 50 -23
52 -12 2 -24 0 -28 -4z m33 -24 c0 -5 -4 -10 -10 -10 -5 0 -10 5 -10 10 0 6 5
10 10 10 6 0 10 -4 10 -10z"/>
<path d="M1891 1646 c-12 -14 -5 -46 10 -46 5 0 9 -29 9 -64 0 -36 5 -68 10
-71 6 -4 26 7 46 24 41 37 52 38 56 9 2 -17 10 -23 28 -23 20 0 26 6 28 28 2
18 -2 29 -12 33 -12 5 -16 21 -16 65 0 46 -3 59 -15 59 -12 0 -15 -13 -15 -58
0 -57 -1 -59 -35 -75 l-35 -17 0 56 c0 81 -27 118 -59 80z m34 -16 c3 -5 -1
-10 -9 -10 -9 0 -16 5 -16 10 0 6 4 10 9 10 6 0 13 -4 16 -10z m132 -132 c-3
-8 -6 -5 -6 6 -1 11 2 17 5 13 3 -3 4 -12 1 -19z"/>
<path d="M2125 1648 c-28 -15 -28 -15 -20 -27 4 -8 13 -6 28 4 53 37 87 8 87
-76 0 -59 0 -59 -30 -59 -25 0 -30 4 -30 23 0 12 7 30 15 40 15 21 11 43 -10
51 -25 9 -45 -23 -45 -69 0 -58 32 -83 88 -69 l37 9 3 72 c2 62 0 75 -18 93
-22 22 -73 26 -105 8z m45 -72 c0 -11 -19 -15 -25 -6 -3 5 1 10 9 10 9 0 16
-2 16 -4z"/>
<path d="M2287 1653 c-12 -11 -8 -40 8 -53 17 -14 21 -110 5 -110 -5 0 -10 -7
-10 -15 0 -11 13 -15 54 -15 30 0 66 4 80 10 25 9 26 12 26 100 0 73 -3 90
-15 90 -12 0 -15 -16 -15 -85 l0 -85 -40 0 -40 0 0 73 c0 71 -10 97 -35 97 -7
0 -15 -3 -18 -7z m33 -23 c0 -5 -7 -10 -16 -10 -8 0 -12 5 -9 10 3 6 10 10 16
10 5 0 9 -4 9 -10z"/>
<path d="M2503 1648 c-13 -6 -23 -17 -23 -25 0 -11 5 -11 30 2 63 32 90 10 90
-76 0 -59 0 -59 -30 -59 -25 0 -30 4 -30 23 0 12 7 30 15 40 15 21 11 43 -10
51 -25 9 -45 -23 -45 -69 0 -58 32 -83 88 -69 37 9 37 9 40 69 2 32 1 69 -2
80 -10 38 -76 56 -123 33z m41 -79 c-3 -5 -10 -7 -15 -3 -5 3 -7 10 -3 15 3 5
10 7 15 3 5 -3 7 -10 3 -15z"/>
<path d="M2664 1646 c-26 -19 -13 -30 19 -15 43 19 56 0 59 -89 2 -49 7 -77
16 -80 9 -3 12 18 12 81 0 69 -3 87 -18 100 -23 21 -62 22 -88 3z"/>
<path d="M2827 1642 c-27 -29 -20 -41 25 -44 37 -3 44 -7 53 -31 8 -23 6 -30
-8 -38 -9 -6 -17 -21 -17 -34 0 -20 5 -25 24 -25 28 0 36 16 36 74 0 44 -21
76 -51 76 -8 0 -20 4 -28 9 -10 7 -1 9 30 8 58 -3 57 17 -2 21 -34 2 -50 -2
-62 -16z m93 -142 c0 -5 -7 -10 -16 -10 -8 0 -12 5 -9 10 3 6 10 10 16 10 5 0
9 -4 9 -10z"/>
<path d="M2981 1634 c-24 -30 -26 -55 -9 -87 6 -12 14 -35 17 -51 8 -35 28
-45 38 -19 3 10 15 30 25 46 25 35 20 71 -10 75 -29 4 -40 -23 -18 -47 13 -14
14 -21 5 -27 -19 -11 -40 27 -37 66 3 33 4 34 48 35 25 1 48 -3 52 -9 4 -6 8
-44 8 -83 0 -58 3 -73 15 -73 24 0 21 150 -4 181 -16 20 -22 22 -43 12 -15 -7
-30 -8 -39 -2 -21 13 -26 11 -48 -17z m69 -64 c0 -5 -4 -10 -10 -10 -5 0 -10
5 -10 10 0 6 5 10 10 10 6 0 10 -4 10 -10z"/>
<path d="M3262 1644 c-30 -21 -17 -38 14 -17 20 13 30 14 49 5 23 -11 25 -17
25 -77 0 -37 -4 -65 -10 -65 -5 0 -10 17 -10 38 0 50 -22 81 -46 66 -24 -14
-28 -29 -11 -45 7 -8 17 -26 20 -41 9 -35 40 -53 67 -38 17 9 20 21 20 85 0
65 -3 76 -22 89 -29 20 -67 20 -96 0z m42 -85 c-3 -5 -10 -7 -15 -3 -5 3 -7
10 -3 15 3 5 10 7 15 3 5 -3 7 -10 3 -15z"/>
<path d="M3424 1646 c-27 -20 -14 -28 23 -14 25 9 35 9 47 -1 20 -17 21 -89 1
-114 -18 -25 -9 -47 20 -47 28 0 35 17 35 84 0 68 -26 106 -74 106 -18 0 -41
-6 -52 -14z m106 -146 c0 -5 -7 -10 -16 -10 -8 0 -12 5 -9 10 3 6 10 10 16 10
5 0 9 -4 9 -10z"/>
<path d="M3582 1568 c3 -92 3 -93 28 -93 18 0 26 6 28 23 2 13 -3 25 -12 28
-12 5 -16 21 -16 70 0 51 -3 64 -15 64 -13 0 -15 -15 -13 -92z m38 -68 c0 -5
-4 -10 -10 -10 -5 0 -10 5 -10 10 0 6 5 10 10 10 6 0 10 -4 10 -10z"/>
<path d="M3688 1649 c-10 -5 -18 -16 -18 -24 0 -11 6 -11 30 3 23 13 34 14 47
6 25 -15 30 -90 8 -114 -20 -22 -9 -50 20 -50 26 0 35 22 35 93 0 38 -5 53
-25 72 -25 26 -67 32 -97 14z m97 -149 c3 -5 -1 -10 -9 -10 -9 0 -16 5 -16 10
0 6 4 10 9 10 6 0 13 -4 16 -10z"/>
<path d="M3847 1642 c-22 -24 -10 -35 17 -17 43 30 76 5 76 -57 l0 -41 -23 34
c-40 60 -77 49 -77 -23 0 -51 9 -68 35 -68 29 0 40 28 20 50 -8 9 -15 25 -15
36 1 18 1 18 16 -1 9 -11 22 -37 31 -57 26 -65 43 -49 43 42 0 67 -3 83 -20
100 -26 26 -81 26 -103 2z m43 -142 c0 -5 -7 -10 -16 -10 -8 0 -12 5 -9 10 3
6 10 10 16 10 5 0 9 -4 9 -10z"/>
<path d="M4034 1652 c-6 -4 -16 -17 -23 -29 -11 -21 -9 -22 36 -25 44 -3 48
-5 51 -31 2 -16 -3 -36 -12 -46 -21 -23 -10 -51 19 -51 24 0 35 22 35 75 0 37
-25 75 -48 75 -9 0 -23 4 -31 9 -10 7 -1 9 30 8 24 -1 44 2 44 8 0 12 -85 18
-101 7z m81 -152 c3 -5 -1 -10 -9 -10 -9 0 -16 5 -16 10 0 6 4 10 9 10 6 0 13
-4 16 -10z"/>
<path d="M4268 1649 c-10 -5 -18 -16 -18 -24 0 -11 6 -11 30 3 47 27 64 9 68
-72 2 -41 -1 -66 -8 -66 -5 0 -10 20 -10 44 0 47 -17 70 -44 60 -20 -8 -21
-43 -1 -50 8 -4 15 -16 15 -28 0 -43 35 -63 69 -40 30 21 30 120 0 158 -22 28
-68 35 -101 15z m42 -79 c0 -5 -4 -10 -10 -10 -5 0 -10 5 -10 10 0 6 5 10 10
10 6 0 10 -4 10 -10z"/>
<path d="M4417 1642 c-22 -24 -10 -35 17 -17 26 19 31 19 50 -1 12 -11 16 -36
16 -90 0 -59 3 -74 15 -74 12 0 15 16 15 80 0 67 -3 83 -20 100 -25 25 -72 26
-93 2z"/>
<path d="M4576 1639 c-22 -17 -24 -24 -15 -36 8 -8 11 -40 10 -79 -2 -52 0
-64 13 -64 13 0 16 12 16 54 0 37 5 58 16 67 14 12 14 14 -5 21 -12 4 -21 12
-21 17 0 16 46 24 69 12 17 -10 21 -23 23 -89 2 -60 6 -77 18 -77 12 0 16 16
18 73 3 66 1 74 -22 97 -32 32 -83 33 -120 4z"/>
<path d="M4766 1639 c-31 -24 -32 -47 -7 -119 22 -63 37 -73 52 -33 6 15 17
35 25 45 22 24 14 62 -14 66 -27 4 -40 -23 -23 -50 6 -10 9 -24 5 -30 -7 -11
-43 46 -44 70 0 19 38 52 60 52 41 0 60 -34 60 -111 0 -52 3 -70 13 -67 8 3
13 30 15 76 3 65 1 74 -22 97 -31 31 -83 33 -120 4z m64 -69 c0 -5 -4 -10 -10
-10 -5 0 -10 5 -10 10 0 6 5 10 10 10 6 0 10 -4 10 -10z"/>
<path d="M1172 1195 c-41 -18 -67 -73 -57 -123 9 -48 55 -92 95 -92 73 0 117
54 107 132 -10 74 -78 113 -145 83z m88 -33 c13 -10 23 -33 27 -57 7 -54 -24
-95 -72 -95 -43 0 -65 29 -65 86 0 34 5 47 26 63 33 26 55 26 84 3z"/>
<path d="M3965 1196 c-37 -16 -55 -53 -55 -112 0 -81 71 -126 145 -92 25 11
44 52 30 66 -3 4 -16 -5 -27 -21 -15 -20 -28 -27 -53 -27 -42 0 -65 29 -65 83
0 41 35 87 65 87 25 0 55 -19 55 -35 0 -8 7 -15 15 -15 23 0 18 38 -7 54 -36
23 -70 27 -103 12z"/>
<path d="M4173 1196 c-70 -31 -83 -135 -23 -188 83 -75 197 15 160 127 -19 58
-80 86 -137 61z m87 -36 c26 -26 28 -105 3 -132 -21 -23 -75 -24 -95 0 -66 76
22 202 92 132z"/>
<path d="M920 1090 c0 -91 3 -110 15 -110 12 0 15 16 15 82 l0 83 55 -83 c76
-113 85 -110 85 28 0 91 -3 110 -15 110 -12 0 -15 -16 -15 -82 l0 -83 -53 82
c-75 117 -87 114 -87 -27z"/>
<path d="M1342 1093 l3 -108 34 -3 c57 -6 100 7 118 35 16 24 16 27 0 55 -12
22 -14 34 -7 48 14 27 13 37 -10 60 -16 16 -33 20 -80 20 l-61 0 3 -107z m116
50 c-3 -24 -8 -28 -40 -31 -36 -3 -38 -2 -38 27 0 30 2 31 41 31 38 0 40 -1
37 -27z m10 -92 c4 -29 -12 -41 -55 -41 -31 0 -33 2 -33 36 l0 35 43 -3 c36
-3 43 -7 45 -27z"/>
<path d="M1585 1188 c-2 -7 -20 -55 -40 -107 -19 -52 -33 -96 -31 -99 12 -11
35 9 41 37 6 29 10 31 51 31 41 0 45 -3 58 -35 15 -36 55 -52 42 -17 -55 148
-81 202 -98 202 -10 0 -21 -6 -23 -12z m43 -75 c11 -32 10 -33 -20 -33 -23 0
-29 3 -24 16 3 9 9 27 12 41 8 28 17 21 32 -24z"/>
<path d="M1720 1090 c0 -91 3 -110 15 -110 11 0 15 12 15 45 l0 45 39 0 c42 0
53 -9 68 -55 5 -16 17 -31 26 -33 22 -4 21 10 -3 60 -18 38 -18 42 -3 53 23
17 21 74 -2 91 -12 9 -45 14 -87 14 l-68 0 0 -110z m138 53 c4 -26 -28 -43
-79 -43 -27 0 -29 3 -29 36 l0 35 53 -3 c45 -3 52 -6 55 -25z"/>
<path d="M1910 1185 c0 -10 11 -15 35 -15 l35 0 0 -95 c0 -78 3 -95 15 -95 12
0 15 17 15 95 l0 95 35 0 c24 0 35 5 35 15 0 12 -16 15 -85 15 -69 0 -85 -3
-85 -15z"/>
<path d="M2238 1108 c-3 -87 -4 -93 -25 -96 -14 -2 -23 3 -28 17 -7 23 -35 29
-35 8 0 -47 70 -75 104 -41 22 22 23 204 1 204 -11 0 -15 -19 -17 -92z"/>
<path d="M2310 1090 l0 -110 80 0 c64 0 80 3 80 15 0 12 -14 15 -65 15 l-65 0
0 35 0 34 57 3 c81 4 85 28 4 28 l-61 0 0 30 0 30 60 0 c47 0 60 3 60 15 0 12
-15 15 -75 15 l-75 0 0 -110z"/>
<path d="M2480 1193 c0 -5 12 -54 27 -111 34 -132 48 -133 82 -7 l25 90 25
-93 c32 -122 45 -120 82 13 33 118 33 115 14 115 -8 0 -18 -16 -25 -40 -5 -22
-15 -59 -21 -82 l-12 -43 -21 80 c-18 65 -26 81 -43 83 -19 3 -23 -6 -39 -72
-10 -42 -21 -76 -24 -76 -3 0 -14 34 -24 75 -12 50 -22 75 -32 75 -8 0 -14 -3
-14 -7z"/>
<path d="M2762 1093 l3 -108 83 -3 c68 -2 82 0 82 13 0 12 -13 15 -65 15 l-65
0 0 35 0 34 57 3 c81 4 85 28 4 28 l-61 0 0 30 0 30 60 0 c47 0 60 3 60 15 0
12 -16 15 -80 15 l-81 0 3 -107z"/>
<path d="M2952 1093 l3 -108 68 -3 c55 -2 67 0 67 13 0 11 -12 15 -50 15 l-50
0 0 95 c0 89 -1 95 -20 95 -20 0 -21 -5 -18 -107z"/>
<path d="M3110 1090 l0 -111 67 3 c42 2 68 8 71 16 3 9 -12 12 -52 12 l-56 0
0 95 c0 78 -3 95 -15 95 -12 0 -15 -19 -15 -110z"/>
<path d="M3262 1093 l3 -108 83 -3 c68 -2 82 0 82 13 0 12 -13 15 -65 15 l-65
0 0 35 0 35 55 0 c42 0 55 3 55 15 0 12 -13 15 -55 15 -54 0 -55 0 -55 30 l0
30 60 0 c47 0 60 3 60 15 0 12 -16 15 -80 15 l-81 0 3 -107z"/>
<path d="M3452 1093 c2 -88 6 -108 18 -108 11 0 16 13 18 43 3 43 3 43 40 40
33 -3 39 -8 57 -45 11 -24 25 -43 32 -43 18 0 16 20 -6 64 -19 37 -19 38 0 57
23 23 24 47 3 77 -13 19 -24 22 -90 22 l-75 0 3 -107z m136 46 c3 -22 -2 -27
-29 -33 -62 -12 -69 -9 -69 30 l0 35 48 -3 c42 -3 47 -6 50 -29z"/>
<path d="M3655 1173 c10 -16 29 -44 42 -63 16 -24 23 -49 23 -82 0 -36 4 -48
15 -48 11 0 15 12 15 47 0 39 7 57 40 104 45 65 47 69 23 69 -10 0 -30 -20
-46 -45 -16 -25 -30 -45 -32 -45 -2 0 -16 20 -32 45 -17 27 -35 45 -47 45 -18
0 -18 -1 -1 -27z"/>
<path d="M4490 1090 l0 -110 65 0 c51 0 65 3 65 15 0 11 -12 15 -50 15 l-50 0
0 95 c0 78 -3 95 -15 95 -12 0 -15 -19 -15 -110z"/>
<path d="M4630 1185 c0 -10 11 -15 35 -15 l35 0 0 -95 c0 -78 3 -95 15 -95 12
0 15 17 15 95 l0 95 35 0 c24 0 35 5 35 15 0 12 -16 15 -85 15 -69 0 -85 -3
-85 -15z"/>
<path d="M4812 1094 l3 -109 62 0 c70 0 97 17 112 71 11 39 -1 100 -23 123
-11 10 -40 17 -86 19 l-71 4 3 -108z m130 59 c21 -19 25 -90 5 -117 -7 -9 -32
-20 -55 -23 l-42 -6 0 82 0 81 37 0 c20 0 45 -7 55 -17z"/>
<path d="M4345 1011 c-8 -15 3 -31 21 -31 9 0 14 7 12 17 -4 20 -24 28 -33 14z"/>
<path d="M4423 981 c1 -31 4 -38 14 -29 18 15 17 68 -1 68 -11 0 -15 -11 -13
-39z"/>
<path d="M5027 1014 c-14 -14 -7 -35 11 -32 9 2 17 10 17 17 0 16 -18 25 -28
15z"/>
</g>
</svg>
