<svg xmlns="http://www.w3.org/2000/svg" width="256" height="256" viewBox="0 0 256 256" stroke="#000" fill="none" stroke-width="6" stroke-linecap="round" stroke-linejoin="round">
<path d="M 138.0,128.0 L 138.5,128.9 L 138.8,129.9 L 139.1,131.0 L 139.3,132.1 L 139.3,133.3 L 139.3,134.5 L 139.1,135.7 L 138.7,137.0 L 138.3,138.3 L 137.6,139.5 L 136.9,140.7 L 136.0,141.9 L 135.0,143.0 L 133.8,144.0 L 132.5,144.9 L 131.1,145.7 L 129.6,146.4 L 128.0,147.0 L 126.3,147.4 L 124.5,147.7 L 122.7,147.8 L 120.8,147.7 L 118.9,147.5 L 117.0,147.1 L 115.1,146.4 L 113.2,145.6 L 111.4,144.6 L 109.6,143.4 L 107.9,142.1 L 106.3,140.5 L 104.9,138.8 L 103.6,136.9 L 102.4,134.9 L 101.4,132.7 L 100.6,130.4 L 100.0,128.0 L 99.6,125.5 L 99.4,123.0 L 99.5,120.4 L 99.8,117.7 L 100.4,115.1 L 101.2,112.5 L 102.2,109.9 L 103.5,107.4 L 105.0,105.0 L 106.8,102.7 L 108.8,100.6 L 111.0,98.6 L 113.4,96.7 L 116.0,95.1 L 118.8,93.7 L 121.7,92.5 L 124.8,91.6 L 128.0,91.0 L 131.3,90.6 L 134.6,90.6 L 138.0,90.8 L 141.3,91.4 L 144.7,92.2 L 148.0,93.4 L 151.2,94.8 L 154.4,96.6 L 157.3,98.7 L 160.2,101.0 L 162.8,103.6 L 165.2,106.5 L 167.4,109.6 L 169.3,113.0 L 171.0,116.5 L 172.3,120.2 L 173.3,124.0 L 174.0,128.0 L 174.3,132.1 L 174.3,136.2 L 173.9,140.3 L 173.1,144.4 L 172.0,148.5 L 170.4,152.5 L 168.5,156.4 L 166.3,160.1 L 163.7,163.7 L 160.8,167.1 L 157.5,170.2 L 154.0,173.0 L 150.2,175.6 L 146.1,177.8 L 141.8,179.7 L 137.4,181.2 L 132.7,182.3 L 128.0,183.0 L 123.2,183.3 L 118.3,183.1 L 113.4,182.6 L 108.5,181.6 L 103.7,180.1 L 99.0,178.2 L 94.4,175.9 L 90.1,173.2 L 85.9,170.1 L 82.0,166.6 L 78.4,162.7 L 75.2,158.5 L 72.3,154.0 L 69.7,149.2 L 67.6,144.2 L 66.0,138.9 L 64.7,133.5 L 64.0,128.0 L 63.7,122.4 L 64.0,116.7 L 64.7,111.0 L 66.0,105.4 L 67.7,99.9 L 70.0,94.5 L 72.7,89.3 L 75.9,84.3 L 79.6,79.6 L 83.6,75.1 L 88.1,71.1 L 93.0,67.4 L 98.2,64.1 L 103.7,61.3 L 109.5,58.9 L 115.5,57.1 L 121.7,55.8 L 128.0,55.0 L 134.4,54.8 L 140.8,55.1 L 147.3,56.0 L 153.7,57.5 L 159.9,59.6 L 166.0,62.2 L 171.9,65.3 L 177.5,69.0 L 182.8,73.2 L 187.8,77.9 L 192.3,83.0 L 196.4,88.5 L 200.1,94.4 L 203.2,100.6 L 205.8,107.2 L 207.8,113.9 L 209.2,120.9 L 210.0,128.0 L 210.2,135.2 L 209.7,142.4 L 208.7,149.6 L 206.9,156.7 L 204.6,163.7 L 201.6,170.5 L 198.0,177.0 L 193.9,183.3 L 189.2,189.2 L 183.9,194.6 L 178.2,199.7 L 172.0,204.2 L 165.4,208.2 L 158.4,211.6 L 151.2,214.5 L 143.6,216.6 L 135.9,218.2 L 128.0,219.0 L 120.0,219.2 L 112.0,218.6 L 104.1,217.3 L 96.2,215.4 L 88.5,212.7 L 81.0,209.4 L 73.8,205.4 L 66.9,200.8 L 60.5,195.5 L 54.5,189.7 L 49.0,183.4 L 44.0,176.5 L 39.6,169.2 L 35.9,161.5 L 32.9,153.5 L 30.5,145.2 L 28.9,136.7"/>
</svg>